<svg width="800" height="622" viewBox="0 0 800 622" fill="none" xmlns="http://www.w3.org/2000/svg">
<rect width="800" height="622" fill="#1E1E1E"/>
<g id="Halloween" clip-path="url(#clip0_0_1)">
<g id="Group">
<path id="SombraCalabazas" d="M243.31 608.038C241.51 608.582 239.71 609.107 237.886 609.582C220.895 614.009 203.27 613.982 185.925 612.827C172.427 612.053 159.045 609.884 145.993 606.356C136.622 606.368 127.462 606.419 118.593 606.512C117.635 606.781 116.682 607.05 115.718 607.3C98.727 611.727 81.102 611.7 63.757 610.545C57.363 610.12 50.969 609.463 44.621 608.5C17.088 609.864 0 611.758 0 613.853C0 617.998 66.779 621.353 149.152 621.353C231.525 621.353 298.304 617.995 298.304 613.853C298.304 611.508 276.869 609.408 243.304 608.032L243.31 608.038Z" fill="#E6E6E6"/>
<g id="CalabazaPeque&#195;&#177;a">
<path id="Vector" d="M56.279 538.612C54.343 535.79 50.459 535.021 47.057 535.389C43.655 535.757 40.384 537.008 36.971 537.256C34.158 537.461 31.341 536.979 28.521 536.963C24.84 536.944 21.1979 537.717 17.841 539.227C6.89099 544.165 0.659991 556.498 0.0589913 568.495C-0.542009 580.492 3.58099 592.221 8.56499 603.15C11.445 609.466 15.026 616.05 21.237 619.15C26.175 621.616 31.961 621.458 37.476 621.25L62.102 620.3L73.975 619.842C79.622 619.624 85.321 619.399 90.787 617.966C97.134 616.232 102.95 612.947 107.712 608.407C112.473 603.866 116.031 598.212 118.064 591.955C122.092 579.105 119.121 564.807 112.54 553.055C108.511 545.862 102.654 539.064 94.706 536.874C90.431 535.696 85.906 535.95 81.483 536.213L57.283 537.652" fill="#F2F2F2"/>
<g id="Group_2">
<path id="Vector_2" d="M54.234 544.064C54.234 544.064 39.979 547.783 48.656 547.783C57.333 547.783 67.704 547.783 67.477 545.924C67.25 544.065 52.377 514.314 50.515 514.314C48.653 514.314 38.115 516.173 42.458 520.514C46.801 524.855 54.234 544.064 54.234 544.064Z" fill="#D6D6E3"/>
<g id="Group_3">
<path id="Vector_3" d="M57.69 617.194C43.627 606.881 51.113 554.86 51.439 552.651L52.362 552.787C52.283 553.323 44.63 606.459 58.243 616.442L57.69 617.194Z" fill="#D6D6E3"/>
<path id="Vector_4" d="M33.0569 612.606C22.1119 592.174 26.414 575.839 31.951 565.733C35.6487 559.051 40.6796 553.201 46.7319 548.544L47.2689 549.308C41.3224 553.888 36.3811 559.642 32.7519 566.213C27.3389 576.113 23.1399 592.113 33.8799 612.165L33.0569 612.606Z" fill="#D6D6E3"/>
<path id="Vector_5" d="M79.3519 616.967L78.4669 616.667C88.7149 586.209 65.9739 550.003 65.7429 549.641L66.5289 549.141C70.7416 556.152 74.2102 563.584 76.8779 571.316C81.0029 583.226 84.7829 600.813 79.3519 616.967Z" fill="#D6D6E3"/>
<path id="Vector_6" d="M106.087 610.679L105.156 610.626C106.745 582.651 98.399 566.842 91.118 558.506C83.258 549.506 74.954 547.064 74.871 547.04L75.126 546.14C75.476 546.24 83.78 548.684 91.826 557.89C99.214 566.36 107.694 582.39 106.087 610.679Z" fill="#D6D6E3"/>
<path id="Vector_7" d="M10.615 586.354C8.20896 575.313 9.56796 566.054 14.656 558.828C23.035 546.928 38.85 544.751 39.008 544.728L39.128 545.653C38.973 545.674 23.552 547.807 15.414 559.369C10.487 566.369 9.17897 575.382 11.527 586.153L10.615 586.354Z" fill="#D6D6E3"/>
<path id="Vector_8" d="M45.9019 544.233C45.7329 544.169 28.9289 537.871 21.0019 544.162L20.4219 543.431C28.7699 536.81 45.5299 543.09 46.2389 543.36L45.9019 544.233Z" fill="#D6D6E3"/>
<path id="Vector_9" d="M60.999 542.883C60.999 542.82 60.769 536.503 67.946 534.283L68.221 535.174C61.753 537.174 61.921 542.605 61.931 542.835L60.999 542.883Z" fill="#D6D6E3"/>
<path id="Vector_10" d="M68.459 546.871L67.71 546.315C67.795 546.201 76.372 534.892 88.683 539.153L88.378 540.035C76.719 535.998 68.54 546.761 68.459 546.871Z" fill="#D6D6E3"/>
</g>
</g>
</g>
<path id="SombraGato" d="M753.428 608.038C752.222 608.582 751.017 609.107 749.8 609.582C738.435 614.009 726.647 613.982 715.046 612.827C705.87 612.017 696.867 609.836 688.337 606.356C682.069 606.368 675.942 606.419 670.01 606.512C669.369 606.781 668.732 607.05 668.087 607.3C656.722 611.727 644.934 611.7 633.332 610.545C629.027 610.129 624.752 609.446 620.532 608.5C602.115 609.864 590.685 611.758 590.685 613.853C590.685 617.998 635.351 621.353 690.447 621.353C745.543 621.353 790.209 617.995 790.209 613.853C790.209 611.508 775.872 609.408 753.425 608.032L753.428 608.038Z" fill="#E6E6E6"/>
<g id="Gato">
<path id="Vector_11" d="M636.072 504.377C640.829 506.589 645.89 508.076 651.087 508.788C655.98 509.446 660.956 509.058 665.687 507.649C670.344 506.138 674.517 503.418 677.779 499.768C679.897 497.406 681.789 494.85 683.429 492.134L657.552 505.689C657.552 505.689 632.693 499.651 631.557 502.196C633.043 502.961 634.546 503.696 636.075 504.377H636.072Z" fill="#E6E6E6"/>
<path id="Vector_12" d="M677.157 501.843L676.967 502.023C678.719 501.132 680.256 499.871 681.473 498.327C682.689 496.784 683.556 494.994 684.013 493.083C682.078 496.26 679.778 499.2 677.16 501.843H677.157Z" fill="#E6E6E6"/>
<path id="Vector_13" d="M779.811 579.883C766.34 593.114 748.847 603.883 736.194 610.753C734.08 611.895 732.106 612.93 730.306 613.853H713.939L700.364 601.55C720.608 591.829 734.964 582.25 744.964 573.138C775.21 545.567 765.585 522.191 758.264 511.644C757.203 510.122 756.636 508.31 756.638 506.454C756.639 504.777 757.099 503.131 757.967 501.696C758.835 500.26 760.08 499.09 761.565 498.311C763.051 497.531 764.721 497.173 766.396 497.275C768.07 497.376 769.685 497.934 771.065 498.887C774.278 501.094 777.192 503.3 779.808 505.503C812.051 532.603 800.827 559.236 779.808 579.884L779.811 579.883Z" fill="#E6E6E6"/>
<path id="Vector_14" d="M680.687 445.425C669.753 441.945 662.794 459.838 662.794 459.838C659.292 458.237 655.432 457.578 651.597 457.927C647.762 458.275 644.084 459.619 640.927 461.825C640.927 461.825 628.998 447.412 620.052 451.887C611.106 456.362 628.003 477.233 628.003 477.233C621.531 487.333 624.903 494.862 629.689 499.833C631.011 501.201 632.483 502.415 634.077 503.453C634.738 503.767 635.399 504.077 636.067 504.375C638.674 505.55 641.359 506.543 644.102 507.347C645.757 507.627 647.434 507.756 649.111 507.731C657.305 507.493 665.424 506.095 673.226 503.58C673.436 503.513 673.64 503.443 673.844 503.38C675.254 502.297 676.566 501.092 677.765 499.78C680.313 496.907 682.553 493.777 684.451 490.439C685.283 481.312 679.689 471.277 679.689 471.277C679.689 471.277 691.618 448.912 680.689 445.433L680.687 445.425ZM649.733 490.98C649.794 490.714 649.934 490.473 650.135 490.288C650.336 490.104 650.588 489.985 650.858 489.948L656.378 489.12C656.622 489.083 656.872 489.113 657.1 489.207C657.328 489.301 657.526 489.454 657.674 489.651C657.822 489.849 657.914 490.082 657.94 490.327C657.966 490.573 657.925 490.82 657.821 491.044L656.165 494.631C656.081 494.814 655.958 494.976 655.803 495.105C655.649 495.235 655.468 495.328 655.273 495.379C655.159 495.409 655.041 495.425 654.922 495.426C654.638 495.426 654.36 495.337 654.127 495.172L650.263 492.414C650.039 492.258 649.868 492.037 649.772 491.781C649.677 491.524 649.663 491.245 649.73 490.98H649.733ZM660.433 500.124C660.226 500.455 659.896 500.691 659.515 500.779C658.129 501.096 656.079 499.587 655.12 498.792C655.007 499.456 654.662 500.059 654.145 500.492C653.058 501.247 651.748 501.615 650.425 501.537C650.007 501.537 649.589 501.514 649.173 501.467C649.085 501.457 649.005 501.413 648.949 501.344C648.894 501.275 648.868 501.186 648.877 501.098C648.887 501.01 648.931 500.929 649.001 500.874C649.07 500.818 649.158 500.792 649.246 500.802C650.094 500.896 652.465 501.042 653.714 499.984C653.981 499.754 654.192 499.465 654.33 499.14C654.468 498.815 654.529 498.463 654.509 498.111V497.35L655.07 497.864C655.858 498.585 658.162 500.402 659.365 500.128C659.467 500.107 659.562 500.065 659.647 500.006C659.732 499.947 659.804 499.871 659.859 499.784C659.901 499.717 659.965 499.666 660.04 499.64C660.115 499.615 660.196 499.616 660.27 499.644C660.316 499.661 660.357 499.688 660.391 499.723C660.425 499.758 660.45 499.8 660.466 499.846C660.482 499.892 660.487 499.941 660.482 499.989C660.476 500.037 660.46 500.084 660.434 500.125L660.433 500.124Z" fill="#E6E6E6"/>
<path id="Vector_15" d="M650.655 491.867L654.519 494.625C654.603 494.685 654.7 494.726 654.801 494.745C654.903 494.764 655.007 494.76 655.107 494.733C655.207 494.707 655.3 494.659 655.379 494.592C655.458 494.525 655.521 494.442 655.564 494.348L657.22 490.761C657.274 490.646 657.296 490.519 657.282 490.393C657.269 490.267 657.221 490.147 657.143 490.046C657.069 489.944 656.967 489.865 656.849 489.817C656.732 489.769 656.603 489.755 656.478 489.776L650.958 490.604C650.822 490.626 650.694 490.688 650.592 490.782C650.491 490.876 650.419 490.998 650.387 491.133C650.355 491.268 650.364 491.409 650.412 491.539C650.46 491.669 650.546 491.782 650.658 491.863L650.655 491.867Z" fill="#E6E6E6"/>
<path id="Vector_16" d="M706.06 512.418C701.216 510.976 696.736 508.515 692.921 505.2C689.105 501.885 686.043 497.792 683.939 493.196C682.024 496.331 679.749 499.232 677.16 501.839C673.598 505.35 669.163 507.849 664.313 509.076C659.418 510.238 654.339 510.399 649.379 509.55C644.059 508.612 638.898 506.926 634.048 504.544C633.073 504.086 632.111 503.606 631.148 503.115C627.932 510.709 623.12 526.929 627.802 549.083C631.149 565.1 632.218 581.51 630.978 597.826C630.594 601.827 631.106 605.863 632.478 609.641C632.974 610.889 633.835 611.959 634.947 612.71C636.06 613.462 637.374 613.861 638.716 613.855H642.857C642.857 611.968 642.857 610.082 642.857 608.195C642.864 598.981 642.872 589.766 642.88 580.551C642.88 580.418 642.933 580.291 643.027 580.198C643.121 580.104 643.248 580.051 643.38 580.051C643.513 580.051 643.64 580.104 643.734 580.198C643.828 580.291 643.88 580.418 643.88 580.551C643.88 583.159 643.878 585.768 643.873 588.379C643.867 596.872 643.859 605.364 643.85 613.856H659.595C659.545 610.971 659.441 608.086 659.281 605.203C658.716 595.076 657.465 584.999 655.537 575.041C655.413 574.41 656.382 574.141 656.502 574.774C657.05 577.609 657.546 580.452 657.988 583.303C659.547 593.417 660.42 603.624 660.599 613.856H678.789C679.093 609.385 679.299 604.906 679.407 600.421C679.611 592.393 679.522 584.365 679.14 576.337C678.756 568.289 678.078 560.261 677.106 552.253C677.029 551.612 678.031 551.622 678.106 552.253C678.654 556.758 679.109 561.273 679.469 565.798C680.109 573.803 680.456 581.824 680.51 589.861C680.564 597.861 680.324 605.859 679.792 613.855H729.574C730.837 613.854 732.085 613.577 733.229 613.041C734.372 612.505 735.384 611.725 736.193 610.755C738.41 608.084 739.996 604.949 740.835 601.581C743.199 592.27 744.584 582.737 744.966 573.138C745.711 549.184 738.651 521.977 706.061 512.419L706.06 512.418Z" fill="#E6E6E6"/>
</g>
<g id="CalabazaGrande">
<path id="Vector_17" d="M178.418 504.009C175.672 500.009 170.164 498.916 165.339 499.438C160.514 499.96 155.876 501.738 151.039 502.086C147.049 502.377 143.055 501.693 139.055 501.67C133.834 501.644 128.669 502.739 123.908 504.881C108.379 511.881 99.542 529.375 98.689 546.389C97.836 563.403 103.689 580.038 110.753 595.538C114.838 604.496 119.916 613.828 128.724 618.227C135.724 621.727 143.932 621.501 151.754 621.199L186.679 619.852L203.518 619.202C211.526 618.893 219.609 618.574 227.361 616.542C236.362 614.083 244.611 609.424 251.364 602.985C258.116 596.545 263.162 588.527 266.045 579.653C271.758 561.429 267.545 541.153 258.21 524.489C252.495 514.289 244.19 504.647 232.918 501.541C226.855 499.87 220.443 500.231 214.165 500.604L179.847 502.645" fill="#F2F2F2"/>
<g id="Group_4">
<path id="Vector_18" d="M175.516 511.741C175.516 511.741 155.299 517.015 167.605 517.015C179.911 517.015 194.619 517.015 194.297 514.378C193.975 511.741 172.879 469.549 170.242 469.549C167.605 469.549 152.662 472.186 158.815 478.339C164.968 484.492 175.516 511.741 175.516 511.741Z" fill="#D6D6E3"/>
<g id="Group_5">
<path id="Vector_19" d="M180.418 615.456C160.473 600.83 171.09 527.056 171.552 523.92L172.861 524.113C172.749 524.873 161.895 600.231 181.201 614.389L180.418 615.456Z" fill="#D6D6E3"/>
<path id="Vector_20" d="M145.484 608.948C129.961 579.972 136.063 556.805 143.916 542.472C149.16 532.996 156.295 524.699 164.878 518.094L165.639 519.177C157.206 525.673 150.198 533.834 145.051 543.152C137.374 557.189 131.419 579.89 146.651 608.322L145.484 608.948Z" fill="#D6D6E3"/>
<path id="Vector_21" d="M211.133 615.134L209.878 614.711C224.412 571.511 192.16 520.167 191.833 519.654L192.948 518.942C198.923 528.885 203.842 539.425 207.626 550.391C213.481 567.281 218.846 592.224 211.133 615.134Z" fill="#D6D6E3"/>
<path id="Vector_22" d="M249.054 606.22L247.733 606.145C249.986 566.471 238.15 544.05 227.825 532.228C216.677 519.465 204.901 516.001 204.783 515.967L205.145 514.694C205.645 514.836 217.419 518.302 228.822 531.357C239.309 543.362 251.333 566.097 249.054 606.22Z" fill="#D6D6E3"/>
<path id="Vector_23" d="M113.656 571.718C110.244 556.06 112.172 542.926 119.386 532.68C131.269 515.805 153.698 512.715 153.923 512.686L154.094 513.998C153.874 514.027 132.003 517.052 120.463 533.451C113.476 543.38 111.621 556.16 114.951 571.436L113.656 571.718Z" fill="#D6D6E3"/>
<path id="Vector_24" d="M163.698 511.98C163.459 511.889 139.627 502.957 128.378 511.88L127.556 510.843C139.395 501.452 163.164 510.36 164.17 510.743L163.698 511.98Z" fill="#D6D6E3"/>
<path id="Vector_25" d="M185.112 510.066C185.112 509.976 184.785 501.019 194.964 497.873L195.354 499.137C186.181 501.972 186.419 509.676 186.434 510.002L185.112 510.066Z" fill="#D6D6E3"/>
<path id="Vector_26" d="M195.69 515.722L194.628 514.933C194.749 514.771 206.912 498.733 224.372 504.775L223.939 506.026C207.404 500.302 195.805 515.567 195.69 515.722Z" fill="#D6D6E3"/>
</g>
</g>
</g>
<g id="Fantasma">
<path id="Vector_27" d="M524.394 137.363C509.178 103.567 493.064 69.7177 469.688 40.9691C457.568 26.0706 440.438 11.6097 421.477 14.6809C407.99 16.8727 397.574 27.4573 388.915 38.0489C343.111 94.0062 317.863 164.466 305.786 235.783C298.836 276.855 296.029 318.479 294.916 360.085C294.486 376.301 295.032 392.772 295.266 409.241C298.11 410.779 300.934 412.439 303.735 414.172C315.3 421.331 326.675 430.223 331.662 442.854C339.469 462.726 329.721 487.272 340.797 505.503C349.114 519.259 366.332 524.379 382.131 527.164C420.848 534.038 460.7 533.679 499.556 527.665C514.241 525.399 529.07 522.247 542.13 515.165C555.217 508.04 566.475 496.519 570.277 482.137C574.729 465.319 568.744 446.552 575.641 430.605C582.657 414.306 600.629 406.233 613.801 394.334C616.636 391.776 619.269 389.002 621.677 386.038C593.377 301.609 560.95 218.72 524.395 137.373L524.394 137.363ZM388.683 366.176C388.706 366.44 388.623 366.703 388.452 366.906C388.282 367.109 388.038 367.236 387.774 367.259C387.509 367.282 387.247 367.199 387.044 367.029C386.841 366.858 386.714 366.614 386.691 366.35L372.894 208.404C372.871 208.14 372.954 207.878 373.124 207.674C373.295 207.471 373.539 207.344 373.803 207.321C374.067 207.298 374.33 207.381 374.533 207.551C374.736 207.722 374.863 207.966 374.886 208.23L388.683 366.176ZM390.424 116.68C390.247 114.662 390.673 112.638 391.648 110.863C392.622 109.088 394.1 107.642 395.897 106.707C397.693 105.772 399.726 105.391 401.739 105.612C403.751 105.833 405.654 106.645 407.205 107.947C408.756 109.249 409.886 110.981 410.452 112.925C411.018 114.869 410.995 116.938 410.386 118.869C409.777 120.8 408.609 122.507 407.03 123.774C405.45 125.041 403.531 125.812 401.514 125.988C398.809 126.224 396.121 125.376 394.041 123.63C391.961 121.885 390.66 119.384 390.424 116.68ZM458.423 456.711C458.446 456.975 458.363 457.237 458.192 457.44C458.022 457.644 457.778 457.771 457.514 457.794C457.249 457.817 456.987 457.734 456.784 457.564C456.581 457.393 456.454 457.149 456.431 456.885L441.074 281.081C441.051 280.817 441.134 280.554 441.304 280.351C441.475 280.148 441.719 280.021 441.983 279.998C442.247 279.975 442.51 280.058 442.713 280.228C442.916 280.398 443.043 280.643 443.066 280.907L458.423 456.711ZM431.714 160.132C415.668 161.533 402.302 158.566 401.859 153.496C401.416 148.427 414.066 143.187 430.111 141.785C446.157 140.384 459.523 143.351 459.966 148.421C460.409 153.49 447.759 158.73 431.714 160.132ZM447.379 121.981C445.362 122.158 443.338 121.732 441.563 120.757C439.788 119.783 438.341 118.305 437.407 116.508C436.472 114.712 436.091 112.679 436.312 110.666C436.532 108.654 437.345 106.751 438.647 105.2C439.949 103.65 441.681 102.519 443.625 101.953C445.569 101.387 447.637 101.41 449.568 102.019C451.499 102.628 453.207 103.796 454.474 105.375C455.741 106.955 456.511 108.874 456.688 110.891C456.924 113.596 456.076 116.284 454.33 118.364C452.584 120.444 450.084 121.745 447.379 121.981ZM532.731 446.045C532.754 446.309 532.671 446.572 532.501 446.775C532.33 446.978 532.086 447.105 531.822 447.128C531.558 447.151 531.295 447.068 531.092 446.898C530.889 446.727 530.762 446.483 530.739 446.219L519.987 323.133C519.964 322.869 520.047 322.607 520.217 322.404C520.388 322.2 520.632 322.073 520.896 322.05C521.16 322.027 521.423 322.11 521.626 322.28C521.829 322.451 521.956 322.695 521.979 322.959L532.731 446.045Z" fill="#6C63FF"/>
</g>
</g>
</g>
<defs>
<clipPath id="clip0_0_1">
<rect width="800.001" height="621.356" fill="white"/>
</clipPath>
</defs>
</svg>
